<svg width="165" height="147" viewBox="0 0 165 147" fill="none" xmlns="http://www.w3.org/2000/svg">
<g opacity="0.8" clip-path="url(#clip0_530_2)">
<path d="M16.8556 54.1658L10.5858 61.2088C15.7945 63.4228 21.067 60.3492 23.2283 58.8082C30.2071 62.6511 38.3849 63.6853 46.0977 61.7003C53.8104 59.7152 60.4788 54.8602 64.746 48.123C69.0131 41.3857 70.5585 33.2724 69.0676 25.4339C67.5768 17.5953 63.1618 10.6204 56.7208 5.92822C50.2799 1.23606 42.2969 -0.820809 34.3962 0.176114C26.4955 1.17304 19.2706 5.14885 14.1915 11.2946C9.11245 17.4404 6.56078 25.2944 7.0557 33.2586C7.55061 41.2229 11.0549 48.699 16.8556 54.1658V54.1658Z" fill="#E6E6E6"/>
<path d="M21.4138 26.1633C27.8821 26.0958 34.3495 25.9799 40.8175 25.8919C42.9738 25.8625 45.1301 25.8368 47.2865 25.8147C49.1444 25.7953 49.1492 22.9001 47.2865 22.9195C40.8182 22.987 34.3508 23.1029 27.8828 23.191C25.7265 23.2203 23.5702 23.246 21.4138 23.2681C19.5558 23.2875 19.5511 26.1827 21.4138 26.1633V26.1633Z" fill="white"/>
<path d="M21.4138 32.9187L47.5559 32.6473L54.9909 32.5701C56.8489 32.5508 56.8536 29.6556 54.9909 29.6749L28.8487 29.9463L21.4138 30.0235C19.5558 30.0428 19.5511 32.938 21.4138 32.9187V32.9187Z" fill="white"/>
<path d="M21.4138 39.674L47.5559 39.4026L54.9909 39.3254C56.8489 39.3061 56.8536 36.4109 54.9909 36.4303L28.8487 36.7017L21.4138 36.7789C19.5558 36.7982 19.5511 39.6934 21.4138 39.674V39.674Z" fill="white"/>
<path d="M2.27769 67.2997C3.53562 67.2997 4.55538 66.2778 4.55538 65.0173C4.55538 63.7567 3.53562 62.7349 2.27769 62.7349C1.01976 62.7349 0 63.7567 0 65.0173C0 66.2778 1.01976 67.2997 2.27769 67.2997Z" fill="#E6E6E6"/>
<path d="M115.476 78.7879L114.203 86.7516C114.123 87.2506 113.935 87.7259 113.652 88.1441C113.369 88.5623 112.997 88.9131 112.564 89.1718C112.131 89.4304 111.646 89.5907 111.144 89.6412C110.643 89.6917 110.136 89.6312 109.66 89.4641V89.4641C109.187 89.2978 108.755 89.0299 108.396 88.6793C108.037 88.3286 107.758 87.9035 107.579 87.4337C107.401 86.9639 107.327 86.4607 107.363 85.9593C107.398 85.4579 107.543 84.9704 107.786 84.5308L111.929 77.0433L127.944 44.9886C128.574 43.9227 129.539 43.0958 130.688 42.6369C131.836 42.178 133.104 42.1129 134.293 42.4517L135.99 42.9352L133.467 50.3502L115.476 78.7879Z" fill="#FFBEC7"/>
<path d="M159.672 134.774L163.421 134.576L159.277 120.736L153.358 121.922L159.672 134.774Z" fill="#FFBEC7"/>
<path d="M122.183 137.344H126.327L128.497 123.899H122.183V137.344Z" fill="#FFBEC7"/>
<path d="M128.751 23.7701C128.751 26.7214 129.913 29.5536 131.984 31.6516C134.056 33.7496 136.869 34.9439 139.814 34.9752C142.759 35.0065 145.598 33.8723 147.713 31.8188C149.829 29.7653 151.05 26.9585 151.113 24.0078C151.116 23.9297 151.116 23.8482 151.116 23.7701C151.117 22.2981 150.828 20.8404 150.266 19.4802C149.705 18.1201 148.881 16.8842 147.843 15.843C146.804 14.8019 145.571 13.976 144.214 13.4126C142.857 12.8491 141.402 12.5591 139.933 12.5591C138.465 12.5591 137.01 12.8491 135.653 13.4126C134.296 13.976 133.063 14.8019 132.024 15.843C130.986 16.8842 130.162 18.1201 129.601 19.4802C129.039 20.8404 128.75 22.2981 128.751 23.7701Z" fill="#2F2E41"/>
<path d="M144.678 17.6581C147.859 17.6581 150.438 15.0736 150.438 11.8854C150.438 8.69729 147.859 6.11279 144.678 6.11279C141.496 6.11279 138.917 8.69729 138.917 11.8854C138.917 15.0736 141.496 17.6581 144.678 17.6581Z" fill="#2F2E41"/>
<path d="M144.077 16.2979C145.189 16.7051 146.399 16.759 147.542 16.4525C148.686 16.146 149.707 15.4938 150.468 14.5847C151.228 13.6757 151.691 12.554 151.792 11.3722C151.894 10.1904 151.629 9.00589 151.035 7.97998C151.579 8.57873 151.991 9.28548 152.245 10.0543C152.498 10.8231 152.587 11.6367 152.507 12.4424C152.426 13.248 152.177 14.0275 151.775 14.7304C151.374 15.4332 150.83 16.0436 150.178 16.5218C149.526 17 148.781 17.3354 147.991 17.5062C147.201 17.677 146.384 17.6793 145.593 17.513C144.803 17.3467 144.056 17.0155 143.401 16.541C142.746 16.0664 142.199 15.4591 141.793 14.7586C142.419 15.4499 143.202 15.9783 144.077 16.2979V16.2979Z" fill="#2F2E41"/>
<path d="M139.051 36.071C142.62 36.071 145.512 33.1723 145.512 29.5965C145.512 26.0208 142.62 23.1221 139.051 23.1221C135.483 23.1221 132.59 26.0208 132.59 29.5965C132.59 33.1723 135.483 36.071 139.051 36.071Z" fill="#FFBEC7"/>
<path d="M143.69 31.959C143.69 31.959 144.282 39.4724 148.031 41.0541L133.43 54.4992L128.694 52.3242L132.049 42.8336C132.049 42.8336 139.744 41.2519 136.587 34.3316L143.69 31.959Z" fill="#FFBEC7"/>
<path d="M118.829 125.085L129.484 125.679L134.416 88.507L147.241 125.481L160.067 121.329L147.439 79.0164C144.187 67.3119 146.923 54.4488 151.385 41.2517L146.452 39.8677L135.206 41.4494C134.043 41.4512 132.901 41.764 131.9 42.3556C130.898 42.9471 130.072 43.796 129.507 44.8144C126.736 49.7851 124.733 54.6075 126.366 58.7271C119.818 75.9 118.407 99.3685 118.829 125.085Z" fill="#DB3022"/>
<path d="M150.399 82.1801L147.658 89.7636C147.487 90.2387 147.421 90.7459 147.467 91.2492C147.512 91.7525 147.667 92.2397 147.92 92.6764C148.174 93.1132 148.52 93.4888 148.935 93.7768C149.349 94.0648 149.822 94.2581 150.319 94.3432V94.3432C150.813 94.4278 151.32 94.4032 151.804 94.2711C152.288 94.139 152.738 93.9026 153.121 93.5785C153.504 93.2543 153.812 92.8502 154.024 92.3943C154.235 91.9385 154.345 91.4419 154.345 90.9392V82.3778L155.85 46.562C155.814 45.3235 155.371 44.1315 154.588 43.1721C153.806 42.2126 152.729 41.5397 151.524 41.2581L149.807 40.8564L148.425 48.5676L150.399 82.1801Z" fill="#FFBEC7"/>
<path d="M161.014 145.764C161.808 145.787 162.586 145.538 163.219 145.057C163.852 144.576 164.303 143.893 164.495 143.121L164.627 142.595C165.254 140.079 165.088 137.43 164.15 135.013L162.829 131.61L158.883 133.39L157.668 141.773C157.598 142.26 157.631 142.756 157.765 143.23C157.9 143.703 158.133 144.143 158.448 144.519C158.764 144.896 159.156 145.202 159.598 145.416C160.04 145.631 160.523 145.749 161.014 145.764V145.764Z" fill="#2F2E41"/>
<path d="M115.838 146.566C116.269 146.83 116.761 146.978 117.267 146.998C117.772 147.017 118.274 146.907 118.725 146.678L126.238 142.437C126.726 142.162 127.116 141.742 127.355 141.236C127.594 140.729 127.67 140.161 127.573 139.609L126.721 134.774H121.986L115.218 141.988C114.916 142.311 114.689 142.697 114.554 143.119C114.419 143.54 114.38 143.987 114.44 144.425C114.499 144.864 114.655 145.284 114.897 145.654C115.139 146.025 115.46 146.336 115.838 146.566V146.566Z" fill="#2F2E41"/>
<path d="M128.853 22.2591C130.604 26.5139 135.132 29.5428 140.442 29.5428C144.989 29.5428 148.964 27.3221 151.113 24.0079C151.116 23.9298 151.116 23.8483 151.116 23.7702C151.116 20.9293 150.039 18.1945 148.103 16.1189C146.167 14.0434 143.517 12.7821 140.689 12.5901C137.86 12.3981 135.065 13.2898 132.867 15.0848C130.67 16.8798 129.235 19.4442 128.853 22.2591V22.2591Z" fill="#2F2E41"/>
<path d="M109.161 55.3543C109.158 48.4903 106.905 41.8173 102.749 36.3616C98.5922 30.9059 92.7621 26.9696 86.1552 25.1581C79.5483 23.3467 72.5305 23.7605 66.1811 26.3357C59.8318 28.911 54.5025 33.5052 51.013 39.4117C47.5235 45.3182 46.067 52.2099 46.8675 59.0269C47.6681 65.8438 50.6813 72.2084 55.4437 77.1419C60.2062 82.0753 66.4542 85.3043 73.2267 86.3322C79.9991 87.3602 86.9211 86.1301 92.9279 82.8313C95.0892 84.3723 100.362 87.4459 105.57 85.2319L99.3005 78.1889C102.417 75.2625 104.901 71.7257 106.597 67.7977C108.293 63.8697 109.166 59.6343 109.161 55.3543Z" fill="#CECECE"/>
<path d="M61.9119 50.1867C68.3801 50.1193 74.8476 50.0034 81.3156 49.9153C83.4719 49.886 85.6282 49.8602 87.7845 49.8381C89.6425 49.8187 89.6473 46.9235 87.7845 46.943C81.3163 47.0105 74.8488 47.1263 68.3808 47.2144C66.2246 47.2437 64.0682 47.2695 61.9119 47.2916C60.0539 47.311 60.0491 50.2062 61.9119 50.1867V50.1867Z" fill="white"/>
<path d="M61.9119 56.9421L88.054 56.6707L95.4889 56.5935C97.3469 56.5742 97.3516 53.679 95.4889 53.6983L69.3468 53.9698L61.9119 54.047C60.0539 54.0663 60.0491 56.9615 61.9119 56.9421V56.9421Z" fill="white"/>
<path d="M61.9119 63.6975L88.054 63.4261L95.4889 63.3489C97.3469 63.3296 97.3516 60.4344 95.4889 60.4537L69.3468 60.7251L61.9119 60.8023C60.0539 60.8216 60.0491 63.7168 61.9119 63.6975Z" fill="white"/>
</g>
<defs>
<clipPath id="clip0_530_2">
<rect width="165" height="147" fill="white"/>
</clipPath>
</defs>
</svg>
